<svg width="14" height="14" viewBox="0 0 14 14" fill="none" xmlns="http://www.w3.org/2000/svg">
<path fill-rule="evenodd" clip-rule="evenodd" d="M6.81261 10.7395C7.07002 10.4762 7.06527 10.0541 6.80202 9.79671C6.53876 9.5393 6.11667 9.54404 5.85927 9.8073L4.33594 11.3652V1.00065C4.33594 0.632461 4.03746 0.333984 3.66927 0.333984C3.30108 0.333984 3.0026 0.632461 3.0026 1.00065L3.0026 11.3652L1.47928 9.8073C1.22187 9.54404 0.799785 9.5393 0.536526 9.79671C0.273268 10.0541 0.268525 10.4762 0.525933 10.7395L3.1926 13.4667C3.31803 13.595 3.48986 13.6673 3.66927 13.6673C3.84868 13.6673 4.02051 13.595 4.14594 13.4667L6.81261 10.7395ZM13.4793 3.26185C13.7367 3.52511 13.7319 3.94719 13.4687 4.2046C13.2054 4.46201 12.7833 4.45726 12.5259 4.194L11.0026 2.63605V13.0007C11.0026 13.3688 10.7041 13.6673 10.3359 13.6673C9.96775 13.6673 9.66927 13.3688 9.66927 13.0007V2.63605L8.14594 4.194C7.88853 4.45726 7.46645 4.46201 7.20319 4.2046C6.93993 3.94719 6.93519 3.52511 7.1926 3.26185L9.85927 0.534573C9.98469 0.406295 10.1565 0.333984 10.3359 0.333984C10.5153 0.333984 10.6872 0.406295 10.8126 0.534573L13.4793 3.26185Z" fill="#908BCE"/>
</svg>
