<svg width="20" height="17" viewBox="0 0 20 17" fill="none" xmlns="http://www.w3.org/2000/svg">
<path fill-rule="evenodd" clip-rule="evenodd" d="M17.874 5.5C17.4299 7.22523 15.8638 8.5 14 8.5C12.1362 8.5 10.5701 7.22523 10.126 5.5L1 5.5C0.447717 5.5 0 5.05229 0 4.5C0 3.94772 0.447716 3.5 1 3.5L10.126 3.5C10.5701 1.77477 12.1362 0.5 14 0.5C15.8638 0.5 17.4299 1.77477 17.874 3.5L19 3.5C19.5523 3.5 20 3.94772 20 4.5C20 5.05229 19.5523 5.5 19 5.5L17.874 5.5ZM16 4.5C16 3.39543 15.1046 2.5 14 2.5C12.8954 2.5 12 3.39543 12 4.5C12 5.60457 12.8954 6.5 14 6.5C15.1046 6.5 16 5.60457 16 4.5ZM6 8.5C4.13616 8.5 2.57006 9.77477 2.12602 11.5L1 11.5C0.447716 11.5 0 11.9477 0 12.5C0 13.0523 0.447714 13.5 0.999999 13.5L2.12602 13.5C2.57006 15.2252 4.13616 16.5 6 16.5C7.86384 16.5 9.42994 15.2252 9.87398 13.5H19C19.5523 13.5 20 13.0523 20 12.5C20 11.9477 19.5523 11.5 19 11.5H9.87398C9.42994 9.77477 7.86384 8.5 6 8.5ZM6 14.5C4.89543 14.5 4 13.6046 4 12.5C4 11.3954 4.89543 10.5 6 10.5C7.10457 10.5 8 11.3954 8 12.5C8 13.6046 7.10457 14.5 6 14.5Z" fill="#254D9B"/>
</svg>
