<svg width="14" height="13" viewBox="0 0 14 13" fill="none" xmlns="http://www.w3.org/2000/svg">
<path fill-rule="evenodd" clip-rule="evenodd" d="M13.4896 0.711449C13.6757 0.910548 13.7219 1.20288 13.6062 1.44965L8.60624 12.1163C8.5041 12.3342 8.29244 12.4802 8.05245 12.4982C7.81246 12.5162 7.5814 12.4034 7.4479 12.2032L6.20687 10.3416L4.33336 11.4122C4.12703 11.5301 3.87353 11.5292 3.66799 11.41C3.46244 11.2907 3.33594 11.071 3.33594 10.8334V7.59994L0.731846 6.44257C0.485857 6.33324 0.329755 6.0867 0.336125 5.81758C0.342496 5.54847 0.510088 5.30959 0.760974 5.21202L12.761 0.545355C13.015 0.446575 13.3035 0.512349 13.4896 0.711449ZM4.66927 8.24538L4.87944 8.35047L5.46552 9.22958L4.66927 9.68457V8.24538ZM6.21598 7.95157L7.90108 10.4792L11.0606 3.73881L6.21598 7.95157ZM9.67652 3.17547L2.73642 5.8744L4.27336 6.55748C4.28259 6.56158 4.29172 6.56589 4.30075 6.57041L5.2351 7.03758L9.67652 3.17547Z" fill="#254D9B"/>
</svg>
