<svg width="14" height="15" viewBox="0 0 14 15" fill="none" xmlns="http://www.w3.org/2000/svg">
<path fill-rule="evenodd" clip-rule="evenodd" d="M7.0026 0.833984C5.16166 0.833984 3.66927 2.32637 3.66927 4.16732C3.66927 5.77996 4.81444 7.12513 6.33594 7.43397V10.834C6.33594 11.2022 6.63441 11.5007 7.0026 11.5007C7.37079 11.5007 7.66927 11.2022 7.66927 10.834V7.43397C9.19076 7.12513 10.3359 5.77996 10.3359 4.16732C10.3359 2.32637 8.84355 0.833984 7.0026 0.833984ZM9.0026 4.16732C9.0026 5.27189 8.10717 6.16732 7.0026 6.16732C5.89803 6.16732 5.0026 5.27189 5.0026 4.16732C5.0026 3.06275 5.89803 2.16732 7.0026 2.16732C8.10717 2.16732 9.0026 3.06275 9.0026 4.16732ZM1.9253 10.4794C2.67499 10.2642 3.64016 10.167 4.57854 10.1673C4.91326 10.1674 5.18452 10.466 5.18443 10.8342C5.18433 11.2024 4.91291 11.5008 4.57819 11.5007C3.69839 11.5004 2.84537 11.5933 2.23142 11.7695C1.93604 11.8543 1.73363 11.9481 1.61422 12.0319C1.65454 12.0626 1.71452 12.1015 1.80283 12.147C2.10546 12.3028 2.57001 12.439 3.15723 12.5469C4.31972 12.7603 5.79694 12.834 7.00259 12.834C8.2083 12.8339 9.6855 12.7602 10.848 12.5467C11.4352 12.4389 11.8997 12.3026 12.2023 12.1467C12.2951 12.0989 12.3567 12.0584 12.397 12.027C12.3631 12.0038 12.3154 11.9754 12.2489 11.9429C11.9839 11.8133 11.5941 11.7127 11.1563 11.6414C10.7282 11.5717 10.2949 11.5361 9.96521 11.5183C9.80128 11.5094 9.665 11.505 9.57036 11.5028C9.52307 11.5017 9.4863 11.5012 9.46178 11.5009L9.43447 11.5007L9.42814 11.5007L9.42677 11.5007C9.09213 11.5006 8.82084 11.2022 8.82079 10.8341C8.82075 10.4659 9.09257 10.1674 9.42729 10.1673C9.42729 10.1673 9.42677 10.1673 9.42685 10.834L9.42729 10.1673L9.42814 10.1673L9.43083 10.1673L9.4401 10.1674L9.4736 10.1676C9.50235 10.1679 9.5437 10.1686 9.59585 10.1698C9.70007 10.1722 9.84788 10.177 10.0249 10.1866C10.377 10.2056 10.8528 10.2441 11.3338 10.3224C11.805 10.3992 12.3244 10.5207 12.7412 10.7244C13.1092 10.9044 13.6693 11.2876 13.6693 12.0189C13.6693 12.7413 13.1212 13.1457 12.7163 13.3543C12.2638 13.5873 11.6706 13.7474 11.0476 13.8618C9.78967 14.0928 8.23658 14.1673 7.00263 14.1673C5.76868 14.1674 4.21558 14.093 2.95767 13.862C2.33469 13.7476 1.74151 13.5876 1.28897 13.3546C0.884172 13.1461 0.335938 12.7419 0.335938 12.0194C0.335938 11.5037 0.634589 11.1521 0.913414 10.9433C1.1947 10.7326 1.55483 10.5858 1.9253 10.4794ZM12.4741 12.0962C12.4741 12.0962 12.472 12.094 12.4696 12.089C12.472 12.092 12.4739 12.0953 12.4739 12.0953L12.4741 12.0962ZM12.4665 11.9589C12.4679 11.9557 12.469 11.9542 12.469 11.9542L12.4688 11.9549C12.4688 11.9549 12.4677 11.957 12.4665 11.9589ZM1.53616 11.9546C1.53616 11.9546 1.5373 11.9561 1.53863 11.9592C1.53668 11.9562 1.53616 11.9546 1.53616 11.9546ZM1.53026 12.1036C1.52835 12.1069 1.52684 12.1086 1.52684 12.1086C1.52684 12.1086 1.5276 12.1069 1.53026 12.1036Z" fill="black"/>
</svg>
