<svg width="12" height="15" viewBox="0 0 12 15" fill="none" xmlns="http://www.w3.org/2000/svg">
<path fill-rule="evenodd" clip-rule="evenodd" d="M9.32673 0.834272H10.6591C11.027 0.834272 11.3252 1.13275 11.3252 1.50094V2.83427C11.3252 3.20246 11.027 3.50094 10.6591 3.50094H9.65982C9.34625 3.51008 9.0688 3.29906 8.99364 2.99427L8.66056 1.66094C8.61047 1.45858 8.65786 1.24443 8.78863 1.08215C8.9194 0.919872 9.1185 0.828157 9.32673 0.834272ZM10.6591 4.83427H9.15353C8.93068 4.83543 8.72317 4.94802 8.6006 5.13427L6.722 7.95427C6.40314 8.4392 6.25111 9.01501 6.28899 9.59427L1.73903 8.9276H1.65243C1.47209 8.92655 1.29903 8.99871 1.17279 9.12761L0.859687 9.43427C0.685188 9.60854 0.621121 9.865 0.693145 10.1009L1.53252 13.1876C1.69158 13.7668 2.218 14.1681 2.81823 14.1676H9.12022C9.44389 14.1735 9.72493 13.9457 9.78639 13.6276L11.3186 5.62761C11.3566 5.43128 11.3045 5.22827 11.1767 5.07455C11.0489 4.92083 10.8589 4.83263 10.6591 4.83427ZM8.57396 12.8343H2.81823L2.15206 10.3543L6.42888 10.9609C6.63101 10.9888 6.83477 10.9225 6.98181 10.7809L7.44146 10.3409C7.58318 10.2063 7.65868 10.0162 7.64798 9.82094V9.51427C7.62608 9.22575 7.69857 8.93794 7.85449 8.69427L9.51326 6.1676H9.85301L8.57396 12.8343Z" fill="black"/>
</svg>
