<svg width="14" height="9" viewBox="0 0 14 9" fill="none" xmlns="http://www.w3.org/2000/svg">
<path fill-rule="evenodd" clip-rule="evenodd" d="M0.335938 7.16667C0.335938 3.48477 3.32071 0.5 7.0026 0.5C10.6845 0.5 13.6693 3.48477 13.6693 7.16667V7.83333C13.6693 8.20152 13.3708 8.5 13.0026 8.5C12.6344 8.5 12.3359 8.20152 12.3359 7.83333V7.16667C12.3359 4.22115 9.94812 1.83333 7.0026 1.83333C4.05709 1.83333 1.66927 4.22115 1.66927 7.16667V7.83333C1.66927 8.20152 1.37079 8.5 1.0026 8.5C0.634414 8.5 0.335938 8.20152 0.335938 7.83333V7.16667ZM9.40261 3.96667C9.69716 4.18758 9.75685 4.60545 9.53594 4.9L8.229 6.64259C8.29783 6.80346 8.33594 6.98061 8.33594 7.16667C8.33594 7.90305 7.73898 8.5 7.0026 8.5C6.26622 8.5 5.66927 7.90305 5.66927 7.16667C5.66927 6.43029 6.26622 5.83333 7.0026 5.83333C7.05661 5.83333 7.10986 5.83654 7.16218 5.84278L8.46927 4.1C8.69019 3.80545 9.10805 3.74575 9.40261 3.96667Z" fill="black"/>
</svg>
