<svg width="16" height="20" viewBox="0 0 16 20" fill="none" xmlns="http://www.w3.org/2000/svg">
<path fill-rule="evenodd" clip-rule="evenodd" d="M8 4C8 1.79086 6.20914 -2.7141e-07 4 -1.74846e-07C1.79086 -7.82811e-08 -3.78714e-07 1.79086 -6.99382e-07 4C-9.75539e-07 5.86384 1.27477 7.42994 3 7.87398L3 19C3 19.5523 3.44772 20 4 20C4.55229 20 5 19.5523 5 19L5 7.87398C6.72523 7.42994 8 5.86384 8 4ZM4 6C5.10457 6 6 5.10457 6 4C6 2.89543 5.10457 2 4 2C2.89543 2 2 2.89543 2 4C2 5.10457 2.89543 6 4 6ZM12 20C9.79086 20 8 18.2091 8 16C8 14.1362 9.27477 12.5701 11 12.126L11 1C11 0.447715 11.4477 -5.00396e-07 12 -5.24537e-07C12.5523 -5.48678e-07 13 0.447715 13 0.999999L13 12.126C14.7252 12.5701 16 14.1362 16 16C16 18.2091 14.2091 20 12 20ZM12 14C10.8954 14 10 14.8954 10 16C10 17.1046 10.8954 18 12 18C13.1046 18 14 17.1046 14 16C14 14.8954 13.1046 14 12 14Z" fill="#E0E0E0"/>
</svg>
